<svg xmlns="http://www.w3.org/2000/svg" xmlns:xlink="http://www.w3.org/1999/xlink" id="Group_28" x="0px" y="0px" viewBox="0 0 200 200" style="enable-background:new 0 0 200 200;" xml:space="preserve"><style type="text/css">	.st0{fill:#FFFFFF;}</style><path id="Path_48" class="st0" d="M199,169.7c-0.3,0.6-0.5,1.2-0.8,1.8c-1.8,3.9-6.4,5.5-10.3,3.7c-2.6-1.2-4.3-3.8-4.4-6.6 c0-0.7,0-1.4,0-2.1c0-31.4,0-101.6,0-133c0.7-8.6-5.6-16.1-14.2-16.8c-0.9-0.1-1.8-0.1-2.7,0H33.2c-8.6-0.7-16.1,5.7-16.8,14.2 c-0.1,0.8-0.1,1.7,0,2.5c0,44.5,0,89.1,0,133.6c-0.7,8.6,5.7,16.1,14.3,16.8c0.8,0.1,1.7,0.1,2.5,0H106v-56.5h-2.8 c-4.8,0-9.5,0-14.3,0c-4.2,0.1-7.7-3.3-7.8-7.5c0-0.1,0-0.2,0-0.3c0-2.8,0-5.5,0-8.3c-0.1-4.2,3.3-7.7,7.5-7.8c0.1,0,0.2,0,0.3,0 c5.7,0,11.3,0,17.3,0V101c0-7.8,0-15.6,0-23.4c0.1-20,16.4-36.1,36.4-36c0.9,0,1.9,0,2.8,0.1c2.2,0.2,4.5,0.4,6.7,0.6 c3.8,0.3,6.9,3.4,7,7.2c0.1,2.9,0.1,5.8,0,8.7c-0.2,4.1-3.5,7.3-7.6,7.3c-3.1,0.1-6.3,0-9.5,0c-6.4-0.2-11.7,4.8-11.9,11.2 c0,0.2,0,0.4,0,0.6c0,8.1,0,16.1,0,24.2v1.5h4c5,0,9.9,0,14.9,0c4.3-0.1,7.8,3.4,7.8,7.6c0,0.4,0,0.8-0.1,1.2 c-0.3,2.8-0.7,5.5-1,8.2c-0.4,4-3.8,7-7.8,6.9c-5.2,0-10.3,0-15.5,0h-2.2v56.5H167c8.5,0.6,15.9-5.9,16.5-14.4c0-0.4,0-0.8,0-1.2 c0.1-4.3,3.6-7.7,7.9-7.6c3.2,0.1,5.9,2,7.1,5l0.5,1.2v5c-0.1,0.3-0.3,0.7-0.4,1.1c-2.2,15-15,26.2-30.2,26.4 c-45.6,0.1-91.2,0.1-136.8,0c-16.8-0.1-30.5-13.7-30.5-30.5C1,122.8,1,77.2,1.1,31.6C1.2,17.5,10.9,5.3,24.5,1.9 c1.3-0.3,2.6-0.6,3.9-0.9h143.1c0.3,0.1,0.7,0.3,1.1,0.3c12.4,1.8,22.4,10.9,25.4,23c0.3,1.3,0.6,2.7,0.9,4.1L199,169.7z"></path></svg>