<svg xmlns="http://www.w3.org/2000/svg" xmlns:xlink="http://www.w3.org/1999/xlink" id="Group_27" x="0px" y="0px" viewBox="0 0 200 200" style="enable-background:new 0 0 200 200;" xml:space="preserve"><style type="text/css">	.st0{fill:#FFFFFF;}</style><g>	<path id="Path_44" class="st0" d="M199,171.1c-0.3,0.6-0.5,1.2-0.8,1.8c-1.8,3.9-6.4,5.5-10.3,3.7c-2.6-1.2-4.3-3.8-4.4-6.6  c0-0.7,0-1.4,0-2.1c0-31.3,0-103.2,0-134.6c0.7-8.6-5.6-16.1-14.2-16.8c-0.9-0.1-1.8-0.1-2.7,0H33.3c-8.6-0.7-16.1,5.7-16.8,14.2  c-0.1,0.8-0.1,1.7,0,2.5c0,44.5,0,89.1,0,133.6c-0.7,8.6,5.7,16.1,14.3,16.7c0.8,0.1,1.7,0.1,2.5,0c44.5,0,88.9-0.1,133.4,0.1  c8.9,0.5,16.4-6.3,16.9-15.2c0-0.2,0-0.5,0-0.7c0.1-3.6,2.8-6.7,6.4-7.3c3.6-0.6,7.1,1.4,8.5,4.7c0.2,0.5,0.4,0.9,0.6,1.4v5  c-0.1,0.3-0.3,0.7-0.4,1.1c-2.2,15-15,26.2-30.2,26.4c-45.6,0.1-91.2,0.1-136.8,0c-16.8-0.1-30.4-13.7-30.5-30.5  C1,122.8,1,77.2,1.1,31.6C1.2,17.5,10.9,5.3,24.5,1.9c1.3-0.3,2.6-0.6,3.9-0.9h143.1c0.3,0.2,0.7,0.3,1.1,0.4  c12.4,1.8,22.4,10.9,25.4,23c0.3,1.4,0.6,2.7,0.9,4.1L199,171.1z"></path>	<path id="Path_45" class="st0" d="M106.2,88.3c2.9-4.3,7-7.8,11.7-9.8c10-4.3,21.3-4.1,31.1,0.6c7,3.3,11.9,10,13.1,17.7  c1.2,5.4,1.8,10.9,1.9,16.4c0.3,14.4,0.1,28.7,0.1,43.1c0.3,4.3-2.9,8-7.2,8.2c-0.3,0-0.7,0-1,0c-3.5,0-7,0-10.4,0  c-4.2,0.2-7.8-3.1-8-7.4c0-0.2,0-0.5,0-0.7c0-12.5,0-25-0.1-37.5c0-2.8-0.3-5.5-0.8-8.3c-0.5-7.3-6.9-12.7-14.1-12.2  c-0.8,0.1-1.6,0.2-2.4,0.4c-7,0.7-12.5,6.2-13.1,13.2c-0.5,3-0.8,6.1-0.8,9.2c-0.1,11.4,0,22.8,0,34.2c0.6,4.3-2.4,8.3-6.7,8.9  c-0.7,0.1-1.4,0.1-2.1,0c-3.1,0-6.3,0-9.5,0c-4.2,0.2-7.8-3.1-7.9-7.4c0-0.2,0-0.4,0-0.6c0-23.8,0-47.7,0-71.5  c-0.1-4.2,3.2-7.8,7.4-7.9c0.2,0,0.4,0,0.6,0c3.5,0,7,0,10.4,0c4.3-0.1,7.8,3.3,7.9,7.5c0,0.2,0,0.3,0,0.5  C106.2,86.2,106.2,87.3,106.2,88.3z"></path>	<path id="Path_46" class="st0" d="M62.9,120.8c0,11.7,0,23.3,0,35c0.5,4.3-2.5,8.2-6.8,8.7c-0.6,0.1-1.2,0.1-1.9,0  c-3.5,0-7,0-10.4,0c-4.2,0.1-7.8-3.2-7.9-7.4c0-0.2,0-0.4,0-0.5c0-23.8,0-47.7,0-71.5c-0.2-4.2,3.1-7.8,7.4-7.9c0.2,0,0.4,0,0.5,0  c3.7,0,7.3,0,11,0c4.2-0.2,7.9,3,8.1,7.3c0,0.3,0,0.6,0,0.9C62.9,97.1,62.9,109,62.9,120.8z"></path>	<path id="Path_47" class="st0" d="M65.6,49.4c0,8.8-7.2,15.8-15.9,15.8S33.8,58,33.9,49.2c0-8.8,7.2-15.8,15.9-15.8  C58.5,33.5,65.6,40.6,65.6,49.4z"></path></g></svg>