<?xml version="1.0" encoding="UTF-8"?><svg id="Layer_1" xmlns="http://www.w3.org/2000/svg" xmlns:xlink="http://www.w3.org/1999/xlink" viewBox="0 0 200 200"><defs><style>.cls-1,.cls-2{fill:#fff;}.cls-3{filter:url(#drop-shadow-5);}.cls-2{fill-rule:evenodd;}</style><filter id="drop-shadow-5" filterUnits="userSpaceOnUse"><feOffset dx="3" dy="3"/><feGaussianBlur result="blur" stdDeviation="2"/><feFlood flood-color="#000" flood-opacity=".1"/><feComposite in2="blur" operator="in"/><feComposite in="SourceGraphic"/></filter></defs><g class="cls-3"><path class="cls-1" d="M145.69,191.32H54.31c-25.16,0-45.63-20.47-45.63-45.63V54.31C8.68,29.15,29.15,8.68,54.31,8.68h91.38c25.16,0,45.63,20.47,45.63,45.63v91.38c0,25.16-20.47,45.63-45.63,45.63ZM54.31,18.35c-19.83,0-35.96,16.13-35.96,35.96v91.38c0,19.83,16.13,35.96,35.96,35.96h91.38c19.83,0,35.96-16.13,35.96-35.96V54.31c0-19.83-16.13-35.96-35.96-35.96H54.31Z"/><path class="cls-2" d="M125.43,108.81c-1.26-.69-7.44-4.02-8.6-4.5-1.16-.47-2.01-.72-2.91,.53-.9,1.25-3.47,4.04-4.24,4.87-.78,.83-1.53,.91-2.79,.22-1.25-.69-5.33-2.2-10.06-6.75-3.68-3.54-6.1-7.83-6.79-9.14-.7-1.31,0-1.98,.66-2.59,.6-.56,1.34-1.45,2.01-2.17,.66-.72,.9-1.25,1.36-2.09,.46-.84,.27-1.59-.02-2.25-.3-.65-2.62-7.05-3.59-9.66-.97-2.6-2.05-2.22-2.8-2.25-.75-.03-1.6-.16-2.45-.2-.86-.03-2.26,.24-3.48,1.47-1.22,1.24-4.65,4.21-4.89,10.52-.24,6.3,4.13,12.57,4.74,13.44,.61,.88,8.33,14.55,21.16,20.17,12.84,5.62,12.91,3.91,15.26,3.78,2.36-.13,7.7-2.82,8.88-5.77,1.18-2.95,1.27-5.52,.98-6.06-.3-.55-1.14-.9-2.4-1.59h0Zm-23.54,30.38c-8.48,0-16.39-2.55-22.99-6.91l-16.06,5.14,5.22-15.52c-5-6.89-7.96-15.35-7.96-24.5,0-23.04,18.75-41.79,41.78-41.79s41.79,18.74,41.79,41.79-18.74,41.79-41.79,41.79h0Zm0-91.98c-27.72,0-50.19,22.47-50.19,50.2,0,9.48,2.63,18.35,7.2,25.92l-9.06,26.93,27.79-8.9c7.19,3.98,15.46,6.24,24.26,6.24,27.73,0,50.2-22.48,50.2-50.2s-22.47-50.2-50.2-50.2h0Z"/></g></svg>