<svg xmlns="http://www.w3.org/2000/svg" xmlns:xlink="http://www.w3.org/1999/xlink" id="Group_30" x="0px" y="0px" viewBox="0 0 200 200" style="enable-background:new 0 0 200 200;" xml:space="preserve"><style type="text/css">	.st0{fill:#FFFFFF;}</style><g>	<path id="Path_52" class="st0" d="M1,89.6c0.3-3.3,0.4-6.7,0.8-10c0.8-7.8,1.3-15.7,2.8-23.4c3.4-16.6,17.2-29,34.1-30.5  c28-2.8,56.1-3.7,84.2-2.5c13.3,0.6,26.5,1.5,39.7,2.7c17.2,2,30.9,15.3,33.4,32.4c3.1,21,3.9,42.3,2.2,63.4  c-0.5,7.8-1.5,15.6-3,23.3c-3.7,16.1-17.4,27.9-33.9,29.2c-28.2,2.8-56.6,3.7-84.9,2.5c-12.9-0.6-25.7-1.5-38.6-2.7  c-17.2-1.9-31-15.1-33.5-32.3c-1.3-9.8-1.9-19.6-2.8-29.4c-0.1-0.7-0.2-1.4-0.3-2.1L1,89.6z M104.5,38.1c-23.9,0-43.4,1-62.9,2.8  c-11.4,0.2-20.9,8.8-22.2,20.2c-1.4,11.6-2.3,23.3-2.8,35c-0.4,14.2,0.5,28.4,2.6,42.4c1.2,10.7,9.7,19.2,20.4,20.3  c12.8,1.1,25.6,2.1,38.4,2.6c26.7,1,53.5,0.3,80.1-2.3c11.5-0.2,21.1-8.9,22.5-20.3c1.3-11.6,2.3-23.2,2.8-34.8  c0.4-14.2-0.5-28.5-2.6-42.6c-1.3-10.7-9.8-19.1-20.5-20.2C140.3,39.1,120.2,38.2,104.5,38.1L104.5,38.1z"></path>	<path id="Path_53" class="st0" d="M70.6,100c0-5.8,0-11.6,0-17.4C70.5,72,79.1,63.3,89.7,63.2c3.4,0,6.8,0.9,9.8,2.6  c10.2,5.8,20.2,11.8,30.2,18c8.9,5.6,11.6,17.5,6,26.4c-1.6,2.5-3.7,4.5-6.1,6.1c-9.8,6-19.7,11.9-29.7,17.7  c-9.1,5.5-21,2.6-26.5-6.5c-1.9-3.1-2.8-6.7-2.8-10.3C70.6,111.4,70.6,105.7,70.6,100z M86.1,99.9c0,5.6,0,11.2,0,16.8  c-0.3,2.1,1.1,4.1,3.3,4.5c1.1,0.2,2.2-0.1,3-0.8c9.5-5.6,19.1-11.3,28.5-17c1.9-0.8,2.9-3,2.1-4.9c-0.4-1-1.2-1.7-2.2-2.1  c-9.4-5.7-18.9-11.3-28.4-16.9c-3.4-2-6.4-0.2-6.4,3.7C86.1,88.8,86.1,94.3,86.1,99.9L86.1,99.9z"></path></g></svg>